<svg xmlns="http://www.w3.org/2000/svg" viewBox="0 0 137.31 168.8"><defs><style>.cls-1{font-size:20.82px;font-family:BrandonGrotesque-Regular, Brandon Grotesque;}.cls-1,.cls-2{fill:#fff;}</style></defs><title>Asset 4</title><g id="Layer_2" data-name="Layer 2"><g id="home"><text class="cls-1" transform="translate(40.93 153.18) scale(1.06 1)">clients</text><path class="cls-2" d="M120.17,78h0l.17-.88,15.48-7,.09-13.8-15.42-6.74-.17-.12.22,0,.21,0v0l-.35.31c0-.1-.22-.2-.26-.29a46.46,46.46,0,0,0-2-5.4l-.26-.54c-.74-1.65-1.66-3.29-2.5-4.84l-.15-.26-.06.1,0,.05-.13-.13,0,0,.13-.06,6.13-15.17-10-9.57-.11-.1-16.26,5.6-.16.06h0v.36l.23,0,0-.11h0c-.69-.32-1.35-.66-2.05-1s-1.68-.81-2.55-1.18l-.87-.36L89.36,17a53.6,53.6,0,0,0-6.06-2l-.07.15,0-.17L76.25.28l0-.15L61.95,0h-.09L54.76,14.79h.11l.14,0,.06.13.09.2v0H55.1a55.07,55.07,0,0,0-5.65,1.83l-.43.17-1.41.58c-.46.19-.92.4-1.37.61L44.9,19c-.48.24-1,.49-1.44.75l0,0-.16.08L27.16,14l0,0L16.92,23.55,23,38.89l0-.11.08-.19,0-.09.09,0,.14.05.11-.1.17-.17c0,.07-.09.12-.12.19l0,.08,0,0A45.61,45.61,0,0,0,20.73,44a44.89,44.89,0,0,0-2.07,5.68l0,.13c0,.05.57.11.56.17s.58.06.58.09V50l-.6-.15L3.06,56.47l-.25,0L2.19,70.09l-.44,0h0L18,76.92l.22-.16.11-.09,0-.23.77,0h.71l-.66-.94c0,.11-.27.21-.24.32s-.06.34,0,.5l-.08,0a47.82,47.82,0,0,0,2,5.66,46,46,0,0,0,2.77,5.4.7.7,0,0,0,.05.1c.08.15.17.3.25.44l.09.15-.53-.5-6.22,15.36,10.13,9.65,0,0,16.26-5.72h0l-.26-.26-1.05-1,.18.1.5.28c.17.09.34.19.52.27q1.41.77,2.9,1.44c1,.44,1.94.86,3,1.25l.76.29a49.5,49.5,0,0,0,5.1,1.59c.28.09.56-.34.85-.28l-.85-.5h-.09l7.1,16h.09L68,126l8.6-.08,7-14.74.06-.13.13-.63V110h-.23l-.46.43-1,.31c.43-.11.87-.05,1.31-.18a52.94,52.94,0,0,0,6-1.85,53.72,53.72,0,0,0,5.7-2.57c.13-.07.26-.12.38-.19l-.06.07h0l-.26.26v0l.06.15.11,0,16,5.76.11-.1,10.08-9.48-6-15.17-.06-.14v0l0,.08h0l0,0-.11.1-.62.58c.16-.25.32-.52.48-.79a45.74,45.74,0,0,0,2.79-5.4,48.46,48.46,0,0,0,2-5.47s0,0,0,0v-.15l.1.85ZM45.64,102.08q-.87-.47-1.73-1c-13.34-7.95-22.2-22-22.2-38S30.61,33,44,25.08c.33-.2.66-.4,1-.58s.65-.37,1-.54l.68-.36A50.07,50.07,0,0,1,91,23.2q1.46.72,2.88,1.52l1,.58,1,.59c.41.26.81.53,1.2.8,12,8.15,19.75,21.43,19.75,36.43S109,91.38,97,99.54c-.4.27-.8.54-1.2.79-.63.4-1.28.79-1.93,1.17q-1.42.81-2.88,1.52a50.07,50.07,0,0,1-44.41-.44Z"/><path class="cls-2" d="M103.07,31.32A48.64,48.64,0,0,0,70.43,18.16h-2.2a49.48,49.48,0,0,0-21.58,5.44L46,24l-1,.54-1,.58a47.51,47.51,0,0,0-8.24,6.24,45.06,45.06,0,0,0-9.49,12.79l-.32.65c-.16.33-.31.66-.46,1-.27.6-.53,1.21-.77,1.83s-.38,1-.55,1.52c-.11.3-.21.6-.31.91s-.22.7-.32,1.05a43,43,0,0,0,0,24.09c.1.36.21.71.32,1.05s.17.54.26.8l.17.47c.12.34.25.69.38,1,.24.62.5,1.23.77,1.83.15.34.31.68.47,1l.31.63A45,45,0,0,0,35.76,94.9a47.23,47.23,0,0,0,8.15,6.19q.85.51,1.73,1l1,.5a49.33,49.33,0,0,0,21.64,5.47h2.2A48.61,48.61,0,0,0,103.07,94.9a43.21,43.21,0,0,0,0-63.58ZM114.54,77l-.17.47c-.12.34-.25.69-.38,1s-.27.69-.41,1c-.24.58-.5,1.15-.76,1.71q-.29.62-.61,1.24l-.16.32a46,46,0,0,1-16.22,17.53c-.63.41-1.28.8-1.93,1.17q-1.42.81-2.88,1.52a49.32,49.32,0,0,1-20.54,4.9H68.2C42.59,107.3,22,87.44,22,63.11S42.59,18.92,68.2,18.3h2.27A49.32,49.32,0,0,1,91,23.2q1.46.72,2.88,1.52c.33.18.65.38,1,.58s.65.38,1,.59a46,46,0,0,1,16.25,17.59l.11.21q.33.65.65,1.32c.26.56.52,1.12.76,1.7l.33.8c.21.53.41,1.07.59,1.61.11.3.21.6.31.91a42.49,42.49,0,0,1,0,26.2C114.71,76.48,114.63,76.75,114.54,77ZM103.07,31.32A48.64,48.64,0,0,0,70.43,18.16h-2.2a49.48,49.48,0,0,0-21.58,5.44L46,24l-1,.54-1,.58a47.51,47.51,0,0,0-8.24,6.24,45.06,45.06,0,0,0-9.49,12.79l-.32.65c-.16.33-.31.66-.46,1-.27.6-.53,1.21-.77,1.83s-.38,1-.55,1.52c-.11.3-.21.6-.31.91s-.22.7-.32,1.05a43,43,0,0,0,0,24.09c.1.36.21.71.32,1.05s.17.54.26.8l.17.47c.12.34.25.69.38,1,.24.62.5,1.23.77,1.83.15.34.31.68.47,1l.31.63A45,45,0,0,0,35.76,94.9a47.23,47.23,0,0,0,8.15,6.19q.85.51,1.73,1l1,.5a49.33,49.33,0,0,0,21.64,5.47h2.2A48.61,48.61,0,0,0,103.07,94.9a43.21,43.21,0,0,0,0-63.58ZM114.54,77l-.17.47c-.12.34-.25.69-.38,1s-.27.69-.41,1c-.24.58-.5,1.15-.76,1.71q-.29.62-.61,1.24l-.16.32a46,46,0,0,1-16.22,17.53c-.63.41-1.28.8-1.93,1.17q-1.42.81-2.88,1.52a49.32,49.32,0,0,1-20.54,4.9H68.2C42.59,107.3,22,87.44,22,63.11S42.59,18.92,68.2,18.3h2.27A49.32,49.32,0,0,1,91,23.2q1.46.72,2.88,1.52c.33.18.65.38,1,.58s.65.38,1,.59a46,46,0,0,1,16.25,17.59l.11.21q.33.65.65,1.32c.26.56.52,1.12.76,1.7l.33.8c.21.53.41,1.07.59,1.61.11.3.21.6.31.91a42.49,42.49,0,0,1,0,26.2C114.71,76.48,114.63,76.75,114.54,77Zm6-27.62h0l-.3.11a45.31,45.31,0,0,0-1.93-5.33l-.22-.54c-.73-1.63-1.6-3.22-2.45-4.77l-.19-.35,6.14-15.19-10.16-9.7,0,0L95.21,19.25h0l.16.07.08,0-.11.25-.07,0,0,0h0l-1.6-.76c-1.32-.64-2.67-1.29-4.08-1.84a53.87,53.87,0,0,0-6.07-2h-.06L76.46.18l0,0L62,.07l0,.07L54.88,14.81l-.09.17.28-.11.08,0,.09.21-.09,0a55.58,55.58,0,0,0-5.56,1.81l-.15.06-.43.17-1.41.58c-.46.19-.92.4-1.37.61L44.9,19l-1.29.68a.8.8,0,0,0-.18.09h0L27.31,13.9h0l-.11.1L17,23.49l0,0,6,15.25.06.14.06.17.22-.5.09,0,.07,0a45.87,45.87,0,0,0-2.72,5.28,43.84,43.84,0,0,0-2.06,5.68.41.41,0,0,0,0,.11l-.11,0L2.3,56.44l-.54,0h0V70.14L18,76.92l.37.06.22,0,0-.36.5-.19.65,0v-.52c0,.13-.46.26-.43.39A46.13,46.13,0,0,0,21.13,82a46.59,46.59,0,0,0,2.66,5.41c0,.07,0,.16.07.24l-.22-.17-.06,0-.09.18-6.18,15.28,0,0,10.09,9.61.11.1,16.46-5.8-.34-.34-.6-.56,0,0,.69.36c.89.48,1.81.94,2.77,1.38s1.94.86,3,1.25l.76.29a49.84,49.84,0,0,0,5.25,1.66l.29.09H55.2l0,.07,7.1,15v0l0,0,14.43,0h0l7.3-16h-.43l-.83.52c.11,0,.23.19.35.15s.28,0,.42,0,.12,0,.18,0a52.26,52.26,0,0,0,5.84-1.86,52.86,52.86,0,0,0,5.57-2.52l.08,0,.1.23v0l16.09,5.82h0l10.26-9.64-6.17-15.56-.09.19h0l-.35.33.09-.15.1-.17a46,46,0,0,0,2.79-5.41,49.26,49.26,0,0,0,2-5.48l.31,0,.26,0V78h-.58l.18-.73,15.67-7,0-.22.08-13.74v-.1Zm15.4,20.33-.11,0-15.48,6.55-.34-.14v.3a48.18,48.18,0,0,1-2,5.42,46.81,46.81,0,0,1-2.79,5.39c-.12.21-.24.42-.37.61l-.11.17-.34.52,1.12-1.06,0,0,.08,0,6,15.15-10.12,9.51,0,0-15.94-5.76,0-.11.72-.7-.51.3-.2.11h0l-.17.09a53.89,53.89,0,0,1-11.71,4.55l-.43.11h0l-.85.23-.58.06,1.91-.1h.26l-7.16,14.92-8.73,0H62.46l-7-14.88H57l-.69-.13a6.08,6.08,0,0,1-.85-.22,52.77,52.77,0,0,1-11.7-4.57c-.35-.17-.67-.35-1-.54l-.7-.4.48.45,1,.94.19.19-.06,0-16.11,5.67L17.46,102.9l6.15-15.17v0l.24.23.62.57L24.2,88c-.17-.28-.31-.49-.42-.69A47.21,47.21,0,0,1,21,81.94a48.67,48.67,0,0,1-2.08-5.65c0-.2-.11-.39-.17-.59s0-.17-.08-.26l.47-.47.61.8v.58l-.54,0h-.46l1,.28v.12l-.72,0L3.13,70l-.08-13.5L18.62,50h.53l.6,0V50h-.41c0-.13-.22-.26-.16-.38A43,43,0,0,1,21.11,44a45.16,45.16,0,0,1,2.71-5.38,1,1,0,0,1,.09-.23l.37-.6-.73.72-.05,0-.19-.07-.05.12-.08.17-.05-.11-5.95-15L27.3,14l16.1,5.82h0l0,0a1.25,1.25,0,0,1,.19-.1,52.17,52.17,0,0,1,5.4-2.52l.58-.23a54.59,54.59,0,0,1,5.63-1.82l.18,0-.22-.5-.16.05,7-14.65L76.25,0h.09l7,14.9.08.47.14-.28A54.43,54.43,0,0,1,89.37,17l.15.07c.3.11.59.24.88.37.87.37,1.73.77,2.56,1.18l.63.3c.53.26,1.07.52,1.6.76l0,0,.19.13.23-.53-.06,0,15.67-5.5,0,0,10.06,9.61-6.1,15.11-.11,0-.13.06.28.27v0l0-.09.11.19c.84,1.54,1.71,3.14,2.44,4.76l.22.54a45.69,45.69,0,0,1,1.93,5.35s0,0,0,0a1.31,1.31,0,0,1,.09.27h.14v-.28l.18-.07,15.42,6.64.1,0ZM70.43,18.16h-2.2a49.48,49.48,0,0,0-21.58,5.44L46,24l-1,.54-1,.58a47.51,47.51,0,0,0-8.24,6.24,45.06,45.06,0,0,0-9.49,12.79l-.32.65c-.16.33-.31.66-.46,1-.27.6-.53,1.21-.77,1.83s-.38,1-.55,1.52c-.11.3-.21.6-.31.91s-.22.7-.32,1.05a43,43,0,0,0,0,24.09c.1.36.21.71.32,1.05s.17.54.26.8l.17.47c.12.34.25.69.38,1,.24.62.5,1.23.77,1.83.15.34.31.68.47,1l.31.63A45,45,0,0,0,35.76,94.9a47.23,47.23,0,0,0,8.15,6.19q.85.51,1.73,1l1,.5a49.33,49.33,0,0,0,21.64,5.47h2.2A48.61,48.61,0,0,0,103.07,94.9a43.21,43.21,0,0,0,0-63.58A48.64,48.64,0,0,0,70.43,18.16ZM113.9,47.49c.21.53.41,1.07.59,1.61.11.3.21.6.31.91a42.49,42.49,0,0,1,0,26.2c-.09.27-.17.54-.26.8l-.17.47c-.12.34-.25.69-.38,1s-.27.69-.41,1c-.24.58-.5,1.15-.76,1.71q-.29.62-.61,1.24l-.16.32a46,46,0,0,1-16.22,17.53c-.63.41-1.28.8-1.93,1.17q-1.42.81-2.88,1.52a49.32,49.32,0,0,1-20.54,4.9H68.2C42.59,107.3,22,87.44,22,63.11S42.59,18.92,68.2,18.3h2.27A49.32,49.32,0,0,1,91,23.2q1.46.72,2.88,1.52c.33.18.65.38,1,.58s.65.38,1,.59a46,46,0,0,1,16.25,17.59l.11.21q.33.65.65,1.32c.26.56.52,1.12.76,1.7Z"/><path class="cls-2" d="M78.22,37.3a1,1,0,0,0-1.47.8v14.8A2,2,0,0,1,74.52,55H64.18c-1.37,0-1.43-.79-1.43-2.09V38.11c0-.65-1.25-1.07-1.87-.79-7.08,3.19-12.26,10-12.26,18A19.77,19.77,0,0,0,61.25,73.75a.51.51,0,0,1,.31.52l.16,16.81c0,.77.64.92,1.45.92H75.55c.82,0,1.2.32,1.2-.46V74.15c0-.25.29-.47.53-.56a19.44,19.44,0,0,0,.94-36.28ZM64.37,67.88c-.21.48-.5.43-.72.28a.73.73,0,0,1-.33-.51c-.17-1.18-1-6.81-.92-7.17a.3.3,0,0,1,.16-.23c.32-.2.79-.08.83.21l1,7.33A.17.17,0,0,1,64.37,67.88Zm3-.08c-.21.48-.5.43-.72.28a.73.73,0,0,1-.33-.51c-.17-1.18-1-6.81-.92-7.17a.3.3,0,0,1,.16-.23c.32-.2.79-.07.83.21l1,7.33A.18.18,0,0,1,67.36,67.8Zm3-.09c-.21.48-.5.43-.72.28a.73.73,0,0,1-.33-.51c-.17-1.18-1-6.81-.92-7.17a.32.32,0,0,1,.16-.23c.32-.2.79-.07.83.21l1,7.33A.17.17,0,0,1,70.34,67.72Zm3-.09c-.21.48-.5.43-.72.28a.74.74,0,0,1-.34-.51c-.16-1.18-1-6.81-.92-7.17a.31.31,0,0,1,.16-.23c.32-.2.79-.08.83.21l1,7.33A.14.14,0,0,1,73.32,67.63Zm3-.08c-.21.48-.5.43-.72.28a.73.73,0,0,1-.34-.51c-.16-1.18-1-6.81-.92-7.17a.32.32,0,0,1,.16-.23c.32-.2.79-.07.83.21l1,7.33A.17.17,0,0,1,76.31,67.55Z"/></g></g></svg>