<svg xmlns="http://www.w3.org/2000/svg" viewBox="0 0 171 210"><defs><style>.cls-1{font-size:26.65px;font-family:BrandonGrotesque-Regular, Brandon Grotesque;}.cls-1,.cls-2{fill:#fff;}</style></defs><title>Asset 10</title><g id="Layer_2" data-name="Layer 2"><g id="home"><text class="cls-1" transform="translate(50.03 196.01) scale(1.06 1)">clients</text><path class="cls-2" d="M96.53,48.74a1.34,1.34,0,0,0-1.88,1V68.7a2.56,2.56,0,0,1-2.85,2.68H78.56c-1.76,0-1.83-1-1.83-2.68V49.77c0-.83-1.61-1.37-2.4-1-9.06,4.08-15.69,12.84-15.69,23A26.33,26.33,0,0,0,74.53,95.81a.76.76,0,0,1,.47.7v20.66a.83.83,0,0,0,.83.83H94.17a.83.83,0,0,0,.83-.83V96.66a1,1,0,0,1,.62-.91c9.44-4,16.27-13.7,16.27-24.05A25.3,25.3,0,0,0,96.53,48.74ZM78.81,87.87c-.26.62-.64.54-.92.36a.93.93,0,0,1-.43-.65c-.21-1.51-1.22-8.71-1.18-9.17a.38.38,0,0,1,.21-.3c.41-.26,1-.1,1.06.27l1.27,9.38A.21.21,0,0,1,78.81,87.87Zm3.82-.11c-.26.62-.64.54-.92.35a.93.93,0,0,1-.43-.65c-.21-1.51-1.22-8.71-1.18-9.17a.39.39,0,0,1,.21-.3c.41-.26,1-.09,1.06.27l1.27,9.38A.23.23,0,0,1,82.62,87.76Zm3.82-.11c-.26.62-.64.54-.92.36a.94.94,0,0,1-.43-.65c-.21-1.51-1.22-8.71-1.18-9.17a.41.41,0,0,1,.21-.3c.41-.26,1-.09,1.06.27l1.27,9.38A.21.21,0,0,1,86.44,87.65Zm3.82-.11c-.26.62-.64.54-.92.36a1,1,0,0,1-.43-.65c-.21-1.51-1.22-8.71-1.18-9.17a.39.39,0,0,1,.21-.3c.41-.26,1-.1,1.06.27l1.27,9.38A.18.18,0,0,1,90.26,87.54Zm3.82-.11c-.26.62-.64.54-.92.35a.94.94,0,0,1-.43-.65c-.21-1.51-1.22-8.71-1.18-9.17a.41.41,0,0,1,.21-.3c.41-.26,1-.09,1.06.27l1.27,9.38A.22.22,0,0,1,94.08,87.43Z"/><path class="cls-2" d="M171,89V72l-20.43-8.73s-.4.28-.44.17a58.76,58.76,0,0,0-2.5-6.93l-.28-.69c-1-2.24-2.23-4.45-3.37-6.54l-.09.2-.17-.16.22-.1,7.87-19.47-13-12.41-20.45,7.18s-5-1.91-7.52-2.89a68.85,68.85,0,0,0-7.78-2.52l-.09.2,0-.22-9-19L75.54,0l-9.1,18.88.53.32s-5,1.44-7.35,2.35l-.75.29a66.7,66.7,0,0,0-6.94,3.24,1.46,1.46,0,0,0-.26.14L31,17.73,17.87,30l7.8,19.7s.71-.54.65-.4a58.38,58.38,0,0,0-3.57,6.91,57.79,57.79,0,0,0-2.65,7.3A2.15,2.15,0,0,0,20,64v-.3L0,72V89l19.81,9.53V96.65c.11.37.23.72.32,1.08A61.42,61.42,0,0,0,22.8,105a59.91,59.91,0,0,0,3.58,6.93c.17.3.36.61.53.89l-.69-.64-8,19.71,13,12.38,20.93-7.37-.34-.34-1.35-1.28c.52.29,1,.58,1.54.84a65.26,65.26,0,0,0,7.32,3.37A66.31,66.31,0,0,0,67,142a9.16,9.16,0,0,0,1.09.29H66.93L76,161l18.5-.05,9-19.89-1.88.67c.55-.14,1.12,0,1.68-.13a67.09,67.09,0,0,0,7.72-2.33c2.52-1,7.65-3.41,7.82-3.51l-.33.68,20.62,7.45,13.07-12.29-7.8-19.7-.05.13-.08,0-.92.88c.21-.32.41-.66.61-1a59,59,0,0,0,3.58-6.94,62.13,62.13,0,0,0,2.58-7s0,0,0,0l0-.2.34.13ZM85,138.41c-33.69,0-61-25.79-61-57.61S51.34,23.19,85,23.19,146,49,146,80.8,118.71,138.41,85,138.41Z"/></g></g></svg>