<svg xmlns="http://www.w3.org/2000/svg" viewBox="0 0 171 210"><defs><style>.cls-1,.cls-2{fill:#fff;}.cls-2{font-size:26.72px;font-family:BrandonGrotesque-Regular, Brandon Grotesque;}</style></defs><title>Asset 12</title><g id="Layer_2" data-name="Layer 2"><g id="home"><path class="cls-1" d="M171,89V72l-20.43-8.73s-.4.28-.44.17a58.76,58.76,0,0,0-2.5-6.93l-.28-.69c-1-2.24-2.23-4.45-3.37-6.54l-.09.2-.17-.16.22-.1,7.87-19.47-13-12.41-20.45,7.18s-5-1.91-7.52-2.89a68.85,68.85,0,0,0-7.78-2.52l-.09.2,0-.22-9-19L75.54,0l-9.1,18.88.53.32s-5,1.44-7.35,2.35l-.75.29a66.7,66.7,0,0,0-6.94,3.24,1.46,1.46,0,0,0-.26.14L31,17.73,17.87,30l7.8,19.7s.71-.54.65-.4a58.38,58.38,0,0,0-3.57,6.91,57.79,57.79,0,0,0-2.65,7.3A2.15,2.15,0,0,0,20,64v-.3L0,72V89l19.81,9.53V96.65c.11.37.23.72.32,1.08A61.42,61.42,0,0,0,22.8,105a59.91,59.91,0,0,0,3.58,6.93c.17.3.36.61.53.89l-.69-.64-8,19.71,13,12.38,20.93-7.37-.34-.34-1.35-1.28c.52.29,1,.58,1.54.84a65.26,65.26,0,0,0,7.32,3.37A66.31,66.31,0,0,0,67,142a9.16,9.16,0,0,0,1.09.29H66.93L76,161l18.5-.05,9-19.89-1.88.67c.55-.14,1.12,0,1.68-.13a67.09,67.09,0,0,0,7.72-2.33c2.52-1,7.65-3.41,7.82-3.51l-.33.68,20.62,7.45,13.07-12.29-7.8-19.7-.05.13-.08,0-.92.88c.21-.32.41-.66.61-1a59,59,0,0,0,3.58-6.94,62.13,62.13,0,0,0,2.58-7s0,0,0,0l0-.2.34.13ZM85,138.41c-33.69,0-61-25.79-61-57.61S51.34,23.19,85,23.19,146,49,146,80.8,118.71,138.41,85,138.41Z"/><text class="cls-2" transform="translate(27.06 196.38) scale(1.06 1)">developers</text><path class="cls-1" d="M126.92,66.59l-22.61-8.48a1.83,1.83,0,0,0-.64-.12H65.51a2.4,2.4,0,0,0-1,.21l-19.1,8.47a1.57,1.57,0,0,0-.91,1.68l3.63,22.88A2.19,2.19,0,0,0,49,92.62c3,2.31,14,11.38,14,11.38s-.39-21.88-.39-21.88l-2.41-5.57-.15-.36L60,76a.53.53,0,0,0-.07-.12,3.23,3.23,0,0,0-.58-.43L58,74.06c-.87-.59-1.76-2.3-2.62-2.3h.18s-.07,0-.11-.06l.16.06h0c.86,0,1.73,1.56,2.59,2l1.39,1.08.34.33a1.64,1.64,0,0,1,.37.35,1.39,1.39,0,0,1,.14.23l.09.19.18.35,2.83,5.5,0,.07V82c1-1.67,2-3.33,3-5,.14-.22.26-.44.41-.66l.22-.34a2.35,2.35,0,0,1,.38-.43,2.4,2.4,0,0,1,1-.51,2.54,2.54,0,0,1,.6-.06l.41,0,3.24.18,6.49.37c2.16.12,4.33.27,6.49.4h0l1.26.28L85.84,76c-2.17.05-4.34.12-6.5.14l-6.5.11-3.25.06h-.41l-.2,0-.21.09a.69.69,0,0,0-.17.14.85.85,0,0,0-.13.17l-.19.32c-.13.23-.27.45-.4.67-1.08,1.7-2,3.46-3,5.16L65,104h45.27a2,2,0,0,0,1.29-.47c2.55-2.13,13-10.88,13.86-11.6a1.81,1.81,0,0,0,.63-1.23c.29-3.5,1.52-18.3,1.87-22.56A1.53,1.53,0,0,0,126.92,66.59Zm-71.3,6.25h0l-.17-.06v0l.19,0v0ZM110,66.38l0,.24a2.24,2.24,0,0,1-.1.38,1.56,1.56,0,0,1-.15.32,3.3,3.3,0,0,1-.8.94,8.15,8.15,0,0,1-1.84,1.13,17.22,17.22,0,0,1-1.87.73,34.06,34.06,0,0,1-3.63,1l-1.72.34a16.55,16.55,0,0,1-1.66.24q-1.62.15-3.08.18c-1.94,0-3.62,0-5,0l-1.84,0h-5l-1.84,0c-1.38,0-3.06.06-5,0-1,0-2-.09-3.08-.18s-2.2-.36-3.38-.59a33,33,0,0,1-3.63-1,17.17,17.17,0,0,1-1.87-.73,8.2,8.2,0,0,1-1.84-1.13,3.39,3.39,0,0,1-.79-.93,2.3,2.3,0,0,1-.24-.65,3,3,0,0,1,0-.36s0,0,0-.11V66a3.23,3.23,0,0,1,1.52-2,15.08,15.08,0,0,1,4.15-1.79,53,53,0,0,1,9.05-1.63,96.82,96.82,0,0,1,18.9,0,53,53,0,0,1,9.05,1.63,15,15,0,0,1,4.16,1.79,5.09,5.09,0,0,1,.91.79A2.6,2.6,0,0,1,110,66l0,.18v.14S110,66.34,110,66.38Zm3.18,7.22h0l-.3.13.3-.13h0Zm0,0,0-.06h.08Z"/></g></g></svg>