<svg xmlns="http://www.w3.org/2000/svg" viewBox="0 0 139.89 168.64"><defs><style>.cls-1{font-size:20.82px;font-family:BrandonGrotesque-Regular, Brandon Grotesque;}.cls-1,.cls-2{fill:#fff;}</style></defs><title>Asset 2</title><g id="Layer_2" data-name="Layer 2"><g id="home"><text class="cls-1" transform="translate(25.7 153.02) scale(1.06 1)">developers</text><path class="cls-2" d="M133.25,69.61l.08-13.6L117.74,49.3l-.25.1v.32a1.27,1.27,0,0,0-.09-.29,45.79,45.79,0,0,0-1.95-5.4l-.22-.54c-.78-1.75-1.74-3.47-2.63-5.09l-.07.16-.13-.12.17-.08,6.13-15.17-10.12-9.67-15.94,5.6.16.07-.17.39-.17-.11h0c-1.83-.85-3.71-1.83-5.67-2.59a53.65,53.65,0,0,0-6.06-2l-.07.16,0-.17L73.64.06,59.27,0,52.19,14.71l.26-.1.16.35h-.08a54.17,54.17,0,0,0-5.65,1.83l-.58.23a52,52,0,0,0-5.41,2.52,1.14,1.14,0,0,0-.2.11L24.53,13.82,14.34,23.39l6.08,15.35.17-.4.22.09.27-.27a1.56,1.56,0,0,0-.16.27,45.49,45.49,0,0,0-2.78,5.38,45,45,0,0,0-2.06,5.68,1.68,1.68,0,0,0-.11.39v-.23L.07,56.36,0,69.94l15.85,6.83v-.24l-.09-.23.09,0v-.95c.09.29.18.56.25.84a47.86,47.86,0,0,0,2.08,5.66A46.68,46.68,0,0,0,21,87.22c.13.23.28.47.42.69l-.54-.5-6.22,15.36,10.13,9.65,16.31-5.75-.27-.27-1.05-1c.4.23.79.45,1.2.65a50.85,50.85,0,0,0,5.7,2.63,51.67,51.67,0,0,0,6,1.95,7.14,7.14,0,0,0,.85.22h-.94l7.1,15L74,125.41l7.23-15.5H81l-1.46.52c.43-.11.87,0,1.31-.1a52.28,52.28,0,0,0,6-1.82A53.64,53.64,0,0,0,92.61,106c.12-.06.25-.1.38-.18l-.33.34.08.19,16.06,5.81L119,102.55,112.91,87.2l0,.1-.06,0-.72.68c.16-.25.32-.51.48-.78a46,46,0,0,0,2.79-5.4,48.41,48.41,0,0,0,2-5.48s0,0,0,0v-.15l.26.1ZM66.66,107.85c-26.25,0-47.53-20.1-47.53-44.89S40.42,18.07,66.66,18.07,114.19,38.17,114.19,63,92.91,107.85,66.66,107.85Z"/><path class="cls-2" d="M97.64,51.26,94,49.73l-.29-.1-4.06-1.38-4.06-1.38-2-.69-1-.35-.51-.17-.13,0-.11,0-.19-.06a95.9,95.9,0,0,0-31.23.1s0,0,0,0h0V43.91h-.25l.12.85v.46l-.06.25,0,.15L46.5,47.1,34.72,51.91h0V52l0,0h0v0l-.08.06,0,0-.43.18-.72.88v.19l.41-.14,3.39,18.48c0,.06.17.1.21.15h.27a2.18,2.18,0,0,1-.28.09v-.09h.28V72l3.91,3.12,7.49,5.83,0,0,0-.29-.47-8.37c0-.7-.1-1.39-.12-2.1l-.05-2.1L48.42,64l-1.88-4.34-.12-.28-.06-.13a.41.41,0,0,0-.06-.09,2.52,2.52,0,0,0-.45-.33l-1-1.1c-.68-.46-1.37-1.8-2-1.8h.14s-.06,0-.09-.05l.13.05h0c.67,0,1.35,1.21,2,1.59l1.08.84.27.26a1.28,1.28,0,0,1,.29.28,1.09,1.09,0,0,1,.11.18l.07.15.14.27,2.21,4.29,0,.05v.11c.79-1.3,1.59-2.6,2.37-3.91.11-.17.21-.35.32-.51l.17-.27a1.83,1.83,0,0,1,.29-.34,1.87,1.87,0,0,1,.8-.4,2,2,0,0,1,.47,0l.32,0,2.53.14,5.06.28c1.69.09,3.37.21,5.06.31h0l1,.22-1-.21c-1.69,0-3.38.09-5.06.11l-5.07.09-2.53,0h-.32l-.16,0-.16.07a.54.54,0,0,0-.13.11.67.67,0,0,0-.1.13l-.14.25-.31.53c-.84,1.33-1.54,2.69-2.36,4L51,81.29,69.83,81,71,81l15.75-.36c.26,0,.52.17.76.08v.22h0l.14-.44-.16-.17h.27l4.93-4.43,2-1.77,3.07-2.77.06,0h0l0,0v-.33h0l-.18.13-.19.15v0h.33l.28-4.52c0-.4.07-.8.08-1.2s0-.8.06-1.2c0-.8.15-1.6.21-2.41l.29-3.14.2-5.46A2.06,2.06,0,0,0,97.64,51.26ZM43,56.76h0l-.13,0v0l.14,0v0Zm42.41-5,0,.19a1.74,1.74,0,0,1-.08.3,1.22,1.22,0,0,1-.11.25,2.57,2.57,0,0,1-.62.73,6.35,6.35,0,0,1-1.43.88,13.42,13.42,0,0,1-1.46.57,26.54,26.54,0,0,1-2.83.75l-1.34.26a12.89,12.89,0,0,1-1.29.19q-1.26.11-2.4.14c-1.51,0-2.82,0-3.89,0H64.58l-1.43,0c-1.08,0-2.38.05-3.89,0-.75,0-1.56-.07-2.4-.14s-1.72-.28-2.63-.46a25.7,25.7,0,0,1-2.83-.75,13.38,13.38,0,0,1-1.46-.57,6.39,6.39,0,0,1-1.44-.88,2.64,2.64,0,0,1-.62-.73,1.79,1.79,0,0,1-.19-.5,2.34,2.34,0,0,1,0-.28s0,0,0-.09v-.17a2.52,2.52,0,0,1,1.18-1.6,11.75,11.75,0,0,1,3.24-1.39,41.3,41.3,0,0,1,7.05-1.27,75.44,75.44,0,0,1,14.73,0,41.3,41.3,0,0,1,7.05,1.27,11.71,11.71,0,0,1,3.24,1.39,4,4,0,0,1,.71.62,2,2,0,0,1,.47.94l0,.14v.11S85.38,51.7,85.38,51.72Zm2.48,5.62h0l-.24.1.23-.1h0Zm0,0,0-.05H88Z"/></g></g></svg>