<svg xmlns="http://www.w3.org/2000/svg" viewBox="0 0 133.33 163.82"><defs><style>.cls-1{font-size:20.82px;font-family:BrandonGrotesque-Regular, Brandon Grotesque;}.cls-1,.cls-2{fill:#fff;}</style></defs><title>Asset 1</title><g id="Layer_2" data-name="Layer 2"><g id="home"><text class="cls-1" transform="translate(37.01 153.02) scale(1.06 1)">interns</text><path class="cls-2" d="M133.25,69.61l.08-13.6L117.74,49.3l-.25.1v.32a1.27,1.27,0,0,0-.09-.29,45.79,45.79,0,0,0-1.95-5.4l-.22-.54c-.78-1.75-1.74-3.47-2.63-5.09l-.07.16-.13-.12.17-.08,6.13-15.17-10.12-9.67-15.94,5.6.16.07-.17.39-.17-.11h0c-1.83-.85-3.71-1.83-5.67-2.59a53.65,53.65,0,0,0-6.06-2l-.07.16,0-.17L73.64.06,59.27,0,52.19,14.71l.26-.1.16.35h-.08a54.17,54.17,0,0,0-5.65,1.83l-.58.23a52,52,0,0,0-5.41,2.52,1.14,1.14,0,0,0-.2.11L24.53,13.82,14.34,23.39l6.08,15.35.17-.4.22.09.27-.27a1.56,1.56,0,0,0-.16.27,45.49,45.49,0,0,0-2.78,5.38,45,45,0,0,0-2.06,5.68,1.68,1.68,0,0,0-.11.39v-.23L.07,56.36,0,69.94l15.85,6.83v-.24l-.09-.23.09,0v-.95c.09.29.18.56.25.84a47.86,47.86,0,0,0,2.08,5.66A46.68,46.68,0,0,0,21,87.22c.13.23.28.47.42.69l-.54-.5-6.22,15.36,10.13,9.65,16.31-5.75-.27-.27-1.05-1c.4.23.79.45,1.2.65a50.85,50.85,0,0,0,5.7,2.63,51.67,51.67,0,0,0,6,1.95,7.14,7.14,0,0,0,.85.22h-.94l7.1,15,14.38.32,7.23-14.7H81l-1.46-.27c.43-.11.87-.38,1.31-.5a53.19,53.19,0,0,0,6-2,54.35,54.35,0,0,0,5.71-2.65c.12-.06.25-.15.38-.23l-.33.32.08.17,16.06,5.8L119,102.55,112.91,87.2l0,.1-.06,0-.72.68c.16-.25.32-.51.48-.78a46,46,0,0,0,2.79-5.4,48.41,48.41,0,0,0,2-5.48s0,0,0,0v-.15l.26.1ZM66.66,107.85c-26.25,0-47.53-20.1-47.53-44.89S40.42,18.07,66.66,18.07,114.19,38.17,114.19,63,92.91,107.85,66.66,107.85Z"/><path class="cls-2" d="M74.83,53.12c1.06.23.92.6.58.88a2.17,2.17,0,0,1-1.16.45c-2.65.28-15.25,1.62-16,1.6a.75.75,0,0,1-.5-.19c-.42-.39-.11-1,.52-1l16.42-1.7A.64.64,0,0,1,74.83,53.12Zm-.2-3.72-16.42,1.7c-.63.07-.94.66-.52,1a.75.75,0,0,0,.5.19c.8,0,13.4-1.32,16-1.6a2.17,2.17,0,0,0,1.16-.45c.34-.28.49-.65-.58-.88A.64.64,0,0,0,74.63,49.41Zm0,7.41-16.42,1.7c-.63.07-.94.66-.52,1a.75.75,0,0,0,.5.19c.8,0,13.4-1.32,16-1.6a2.17,2.17,0,0,0,1.16-.45c.34-.28.49-.65-.58-.88A.64.64,0,0,0,74.63,56.82Zm0,7.41-16.42,1.7c-.63.07-.94.66-.52,1a.75.75,0,0,0,.5.19c.8,0,13.4-1.32,16-1.6a2.17,2.17,0,0,0,1.16-.45c.34-.28.49-.65-.58-.88A.64.64,0,0,0,74.63,64.23Zm0-3.71-16.42,1.7c-.63.07-.94.66-.52,1a.75.75,0,0,0,.5.19c.8,0,13.4-1.32,16-1.6a2.17,2.17,0,0,0,1.16-.45c.34-.28.49-.65-.58-.88A.64.64,0,0,0,74.63,60.53Zm0,7.41-16.42,1.7c-.63.07-.94.66-.52,1a.75.75,0,0,0,.5.19c.8,0,13.4-1.32,16-1.6a2.17,2.17,0,0,0,1.16-.45c.34-.28.49-.65-.58-.88A.64.64,0,0,0,74.63,67.94Zm0,3.71-16.42,1.7c-.63.07-.94.66-.52,1a.75.75,0,0,0,.5.19c.8,0,13.4-1.32,16-1.6a2.17,2.17,0,0,0,1.16-.45c.34-.28.49-.65-.58-.88A.64.64,0,0,0,74.63,71.65Zm0,7.41-16.42,1.7c-.63.07-.94.66-.52,1a.75.75,0,0,0,.5.19c.8,0,13.4-1.32,16-1.6a2.17,2.17,0,0,0,1.16-.45c.34-.28.49-.65-.58-.88A.64.64,0,0,0,74.63,79.06Zm0-3.71-16.42,1.7c-.63.07-.94.66-.52,1a.75.75,0,0,0,.5.19c.8,0,13.4-1.32,16-1.6a2.17,2.17,0,0,0,1.16-.45c.34-.28.49-.65-.58-.88A.64.64,0,0,0,74.63,75.35Zm0,7.41-16.42,1.7c-.63.07-.94.66-.52,1a.75.75,0,0,0,.5.19c.8,0,13.4-1.32,16-1.6a2.17,2.17,0,0,0,1.16-.45c.34-.28.49-.65-.58-.88A.64.64,0,0,0,74.63,82.77Z"/><path class="cls-2" d="M86.18,46.5H46.64C44,46.5,42,45,42.54,43.41c2.23-6.3,11.3-11.13,22.36-11.53,0,0,0-.25,0-.25v.89h0a26.49,26.49,0,0,0-5.16.69,1.77,1.77,0,0,0-.94.64c-.29.33-.44.82.35,1.07a.36.36,0,0,0,.15,0,44.46,44.46,0,0,1,5.61-.5v3.76a.76.76,0,0,0,1.51.18c0-.27.07-1.84.09-3.95a44.37,44.37,0,0,1,5.7.41c.5.07.8-.52.51-1.06a.65.65,0,0,0-.37-.33A31.49,31.49,0,0,0,66.6,33h-.09c0-.38,0-.76,0-1.16,11.69,0,21.43,5,23.75,11.6C90.82,45,88.84,46.5,86.18,46.5Z"/><path class="cls-2" d="M66.85,94.74a.4.4,0,0,1-.51,0l-3.78-3.11L59.3,88.95a.35.35,0,0,1,.25-.62H73.64a.35.35,0,0,1,.25.62l-3.27,2.69Z"/></g></g></svg>