<svg xmlns="http://www.w3.org/2000/svg" viewBox="0 0 171 209.87"><defs><style>.cls-1{font-size:26.71px;font-family:BrandonGrotesque-Regular, Brandon Grotesque;}.cls-1,.cls-2{fill:#fff;}</style></defs><title>Asset 11</title><g id="Layer_2" data-name="Layer 2"><g id="home"><text class="cls-1" transform="translate(47.47 196.02) scale(1.06 1)">interns</text><path class="cls-2" d="M95,68.9c1.36.29,1.18.76.74,1.13a2.79,2.79,0,0,1-1.48.58c-3.4.36-19.56,2.08-20.58,2.05a1,1,0,0,1-.65-.24c-.54-.49-.15-1.25.67-1.34l21.05-2.19A.82.82,0,0,1,95,68.9Zm-.26-4.77L73.66,66.32c-.81.08-1.21.84-.67,1.34a1,1,0,0,0,.65.24c1,0,17.19-1.69,20.58-2.05a2.79,2.79,0,0,0,1.48-.58c.44-.36.62-.84-.74-1.13A.82.82,0,0,0,94.71,64.13Zm0,9.51L73.66,75.83c-.81.08-1.21.84-.67,1.34a1,1,0,0,0,.65.24c1,0,17.19-1.69,20.58-2.05a2.79,2.79,0,0,0,1.48-.58c.44-.36.62-.84-.74-1.13A.82.82,0,0,0,94.71,73.64Zm0,9.51L73.66,85.33c-.81.08-1.21.84-.67,1.34a1,1,0,0,0,.65.24c1,0,17.19-1.69,20.58-2.05a2.79,2.79,0,0,0,1.48-.58c.44-.36.62-.84-.74-1.13A.82.82,0,0,0,94.71,83.15Zm0-4.75L73.66,80.58c-.81.08-1.21.84-.67,1.34a1,1,0,0,0,.65.24c1,0,17.19-1.69,20.58-2.05a2.79,2.79,0,0,0,1.48-.58c.44-.36.62-.84-.74-1.13A.82.82,0,0,0,94.71,78.39Zm0,9.51L73.66,90.09c-.81.08-1.21.84-.67,1.34a1,1,0,0,0,.65.24c1,0,17.19-1.69,20.58-2.05A2.79,2.79,0,0,0,95.71,89c.44-.36.62-.84-.74-1.13A.82.82,0,0,0,94.71,87.9Zm0,4.75L73.66,94.84c-.81.08-1.21.84-.67,1.34a1,1,0,0,0,.65.24c1,0,17.19-1.69,20.58-2.05a2.79,2.79,0,0,0,1.48-.58c.44-.36.62-.84-.74-1.13A.82.82,0,0,0,94.71,92.66Zm0,9.51-21.05,2.19c-.81.08-1.21.84-.67,1.34a1,1,0,0,0,.65.24c1,0,17.19-1.69,20.58-2.05a2.79,2.79,0,0,0,1.48-.58c.44-.36.62-.84-.74-1.13A.82.82,0,0,0,94.71,102.16Zm0-4.75L73.66,99.6c-.81.08-1.21.84-.67,1.34a1,1,0,0,0,.65.24c1,0,17.19-1.69,20.58-2.05a2.79,2.79,0,0,0,1.48-.58c.44-.36.62-.84-.74-1.13A.82.82,0,0,0,94.71,97.41Zm0,9.51L73.66,109.1c-.81.08-1.21.84-.67,1.34a1,1,0,0,0,.65.24c1,0,17.19-1.69,20.58-2.05a2.79,2.79,0,0,0,1.48-.58c.44-.36.62-.84-.74-1.13A.82.82,0,0,0,94.71,106.92Z"/><path class="cls-2" d="M109.53,60.41H58.82c-3.42,0-6-2-5.25-4,2.86-8.08,14.49-14.28,28.68-14.79,0,0,0-.33,0-.33v1.14h0a34,34,0,0,0-6.62.89,2.27,2.27,0,0,0-1.2.82c-.38.43-.57,1.05.45,1.38a.46.46,0,0,0,.2.05A57,57,0,0,1,82.25,45l0,4.82a1,1,0,0,0,1.94.24c.05-.35.09-2.36.12-5.06a56.91,56.91,0,0,1,7.31.53c.63.09,1-.67.66-1.36a.83.83,0,0,0-.47-.42A40.38,40.38,0,0,0,84.42,43H84.3c0-.48,0-1,0-1.48,15,0,27.49,6.47,30.47,14.88C115.49,58.43,112.95,60.41,109.53,60.41Z"/><path class="cls-2" d="M84.74,122.28a.52.52,0,0,1-.65,0l-4.84-4-4.19-3.45a.45.45,0,0,1,.33-.8H93.45a.45.45,0,0,1,.33.8l-4.19,3.45Z"/><path class="cls-2" d="M171,89V72l-20.43-8.73s-.4.28-.44.17a58.76,58.76,0,0,0-2.5-6.93l-.28-.69c-1-2.24-2.23-4.45-3.37-6.54l-.09.2-.17-.16.22-.1,7.87-19.47-13-12.41-20.45,7.18s-5-1.91-7.52-2.89a68.85,68.85,0,0,0-7.78-2.52l-.09.2,0-.22-9-19L75.54,0l-9.1,18.88.53.32s-5,1.44-7.35,2.35l-.75.29a66.7,66.7,0,0,0-6.94,3.24,1.46,1.46,0,0,0-.26.14L31,17.73,17.87,30l7.8,19.7s.71-.54.65-.4a58.38,58.38,0,0,0-3.57,6.91,57.79,57.79,0,0,0-2.65,7.3A2.15,2.15,0,0,0,20,64v-.3L0,72V89l19.81,9.53V96.65c.11.37.23.72.32,1.08A61.42,61.42,0,0,0,22.8,105a59.91,59.91,0,0,0,3.58,6.93c.17.3.36.61.53.89l-.69-.64-8,19.71,13,12.38,20.93-7.37-.34-.34-1.35-1.28c.52.29,1,.58,1.54.84a65.26,65.26,0,0,0,7.32,3.37A66.31,66.31,0,0,0,67,142a9.16,9.16,0,0,0,1.09.29H66.93L76,161l18.5-.05,9-19.89-1.88.67c.55-.14,1.12,0,1.68-.13a67.09,67.09,0,0,0,7.72-2.33c2.52-1,7.65-3.41,7.82-3.51l-.33.68,20.62,7.45,13.07-12.29-7.8-19.7-.05.13-.08,0-.92.88c.21-.32.41-.66.61-1a59,59,0,0,0,3.58-6.94,62.13,62.13,0,0,0,2.58-7s0,0,0,0l0-.2.34.13ZM85,138.41c-33.69,0-61-25.79-61-57.61S51.34,23.19,85,23.19,146,49,146,80.8,118.71,138.41,85,138.41Z"/></g></g></svg>